<svg width="32" height="32" viewBox="0 0 32 32" fill="none" xmlns="http://www.w3.org/2000/svg">
<g clip-path="url(#clip0_13_128)">
<path d="M21.4731 16C21.4731 20.3924 20.7011 24.3571 19.463 27.2143C18.8438 28.6433 18.1128 29.7839 17.3139 30.5637C16.5161 31.3424 15.6635 31.75 14.7898 31.75C13.916 31.75 13.0634 31.3424 12.2656 30.5637C11.4667 29.7839 10.7358 28.6433 10.1166 27.2143C8.87843 24.3571 8.10645 20.3924 8.10645 16C8.10645 11.6076 8.87843 7.64291 10.1166 4.78569C10.7358 3.35668 11.4667 2.21607 12.2656 1.43626C13.0634 0.65758 13.916 0.25 14.7898 0.25C15.6635 0.25 16.5161 0.65758 17.3139 1.43626C18.1128 2.21607 18.8438 3.35668 19.463 4.78569C20.7011 7.64291 21.4731 11.6076 21.4731 16Z" stroke="url(#paint0_linear_13_128)" stroke-width="0.5"/>
<path d="M22.5398 16C22.5398 20.3924 21.7678 24.3571 20.5297 27.2143C19.9104 28.6433 19.1795 29.7839 18.3806 30.5637C17.5828 31.3424 16.7302 31.75 15.8564 31.75C14.9827 31.75 14.1301 31.3424 13.3323 30.5637C12.5334 29.7839 11.8025 28.6433 11.1832 27.2143C9.9451 24.3571 9.17311 20.3924 9.17311 16C9.17311 11.6076 9.9451 7.64291 11.1832 4.78569C11.8025 3.35668 12.5334 2.21607 13.3323 1.43626C14.1301 0.65758 14.9827 0.25 15.8564 0.25C16.7302 0.25 17.5828 0.65758 18.3806 1.43626C19.1795 2.21607 19.9104 3.35668 20.5297 4.78569C21.7678 7.64291 22.5398 11.6076 22.5398 16Z" stroke="url(#paint1_linear_13_128)" stroke-width="0.5"/>
<path d="M23.6064 16C23.6064 20.3924 22.8345 24.3571 21.5963 27.2143C20.9771 28.6433 20.2462 29.7839 19.4473 30.5637C18.6495 31.3424 17.7968 31.75 16.9231 31.75C16.0494 31.75 15.1967 31.3424 14.399 30.5637C13.6 29.7839 12.8691 28.6433 12.2499 27.2143C11.0118 24.3571 10.2398 20.3924 10.2398 16C10.2398 11.6076 11.0118 7.64291 12.2499 4.78569C12.8691 3.35668 13.6 2.21607 14.399 1.43626C15.1967 0.65758 16.0494 0.25 16.9231 0.25C17.7968 0.25 18.6495 0.65758 19.4473 1.43626C20.2462 2.21607 20.9771 3.35668 21.5963 4.78569C22.8345 7.64291 23.6064 11.6076 23.6064 16Z" stroke="url(#paint2_linear_13_128)" stroke-width="0.5"/>
<path d="M18.6647 11.1358C22.4687 13.3321 25.5162 15.9829 27.3716 18.4838C28.2995 19.7346 28.9218 20.9379 29.1977 22.0197C29.4732 23.0999 29.3998 24.0421 28.963 24.7988C28.5261 25.5555 27.7468 26.0901 26.6736 26.3916C25.5988 26.6936 24.2455 26.7563 22.6983 26.5781C19.6048 26.2217 15.7853 24.9079 11.9814 22.7117C8.17746 20.5155 5.12995 17.8646 3.27459 15.3638C2.34665 14.113 1.7243 12.9097 1.44844 11.8279C1.17296 10.7476 1.24631 9.80546 1.68317 9.04878C2.12004 8.2921 2.89933 7.75749 3.97258 7.45594C5.04737 7.15396 6.40062 7.09127 7.94781 7.2695C11.0413 7.62586 14.8608 8.93964 18.6647 11.1358Z" stroke="url(#paint3_linear_13_128)" stroke-width="0.5"/>
<path d="M19.1981 10.2121C23.002 12.4083 26.0495 15.0592 27.9049 17.56C28.8328 18.8108 29.4552 20.0141 29.7311 21.0959C30.0065 22.1761 29.9332 23.1183 29.4963 23.875C29.0594 24.6317 28.2802 25.1663 27.2069 25.4679C26.1321 25.7698 24.7789 25.8325 23.2317 25.6543C20.1382 25.2979 16.3187 23.9842 12.5147 21.7879C8.7108 19.5917 5.66329 16.9408 3.80793 14.44C2.87999 13.1892 2.25765 11.9859 1.98178 10.9041C1.7063 9.82388 1.77965 8.88169 2.21651 8.12501C2.65338 7.36834 3.43267 6.83372 4.50592 6.53217C5.58071 6.23019 6.93396 6.1675 8.48115 6.34573C11.5746 6.70209 15.3941 8.01587 19.1981 10.2121Z" stroke="url(#paint4_linear_13_128)" stroke-width="0.5"/>
<path d="M19.7314 9.28831C23.5353 11.4845 26.5829 14.1354 28.4382 16.6363C29.3662 17.8871 29.9885 19.0904 30.2644 20.1721C30.5398 21.2524 30.4665 22.1946 30.0296 22.9512C29.5928 23.7079 28.8135 24.2425 27.7402 24.5441C26.6654 24.8461 25.3122 24.9088 23.765 24.7305C20.6715 24.3742 16.852 23.0604 13.0481 20.8642C9.24413 18.668 6.19662 16.0171 4.34126 13.5162C3.41331 12.2654 2.79097 11.0621 2.5151 9.98035C2.23963 8.90012 2.31297 7.95792 2.74984 7.20125C3.18671 6.44457 3.966 5.90996 5.03924 5.60841C6.11403 5.30642 7.46729 5.24374 9.01447 5.42197C12.108 5.77833 15.9275 7.0921 19.7314 9.28831Z" stroke="url(#paint5_linear_13_128)" stroke-width="0.5"/>
<path d="M13.0482 11.1358C9.24421 13.3321 6.1967 15.9829 4.34134 18.4838C3.41339 19.7346 2.79105 20.9379 2.51518 22.0197C2.23971 23.0999 2.31305 24.0421 2.74992 24.7988C3.18679 25.5555 3.96608 26.0901 5.03932 26.3916C6.11411 26.6936 7.46737 26.7563 9.01455 26.5781C12.108 26.2217 15.9275 24.9079 19.7315 22.7117C23.5354 20.5155 26.5829 17.8646 28.4383 15.3638C29.3662 14.113 29.9886 12.9097 30.2645 11.8279C30.5399 10.7476 30.4666 9.80546 30.0297 9.04878C29.5929 8.2921 28.8136 7.75749 27.7403 7.45594C26.6655 7.15396 25.3123 7.09127 23.7651 7.2695C20.6716 7.62586 16.8521 8.93964 13.0482 11.1358Z" stroke="url(#paint6_linear_13_128)" stroke-width="0.5"/>
<path d="M12.5148 10.2121C8.71088 12.4083 5.66337 15.0592 3.80801 17.56C2.88007 18.8108 2.25773 20.0141 1.98186 21.0959C1.70638 22.1761 1.77973 23.1183 2.21659 23.875C2.65346 24.6317 3.43275 25.1663 4.506 25.4679C5.58079 25.7698 6.93404 25.8325 8.48123 25.6543C11.5747 25.2979 15.3942 23.9842 19.1982 21.7879C23.0021 19.5917 26.0496 16.9408 27.905 14.44C28.8329 13.1892 29.4553 11.9859 29.7311 10.9041C30.0066 9.82388 29.9333 8.88169 29.4964 8.12501C29.0595 7.36834 28.2802 6.83372 27.207 6.53217C26.1322 6.23019 24.7789 6.1675 23.2318 6.34573C20.1383 6.70209 16.3188 8.01587 12.5148 10.2121Z" stroke="url(#paint7_linear_13_128)" stroke-width="0.5"/>
<path d="M11.9815 9.28831C8.17754 11.4845 5.13003 14.1354 3.27467 16.6363C2.34673 17.8871 1.72438 19.0904 1.44852 20.1721C1.17304 21.2524 1.24638 22.1946 1.68325 22.9512C2.12012 23.7079 2.89941 24.2425 3.97266 24.5441C5.04745 24.8461 6.4007 24.9088 7.94789 24.7305C11.0414 24.3742 14.8609 23.0604 18.6648 20.8642C22.4688 18.668 25.5163 16.0171 27.3716 13.5162C28.2996 12.2654 28.9219 11.0621 29.1978 9.98035C29.4733 8.90012 29.3999 7.95792 28.9631 7.20125C28.5262 6.44457 27.7469 5.90996 26.6736 5.60841C25.5989 5.30642 24.2456 5.24374 22.6984 5.42197C19.6049 5.77833 15.7854 7.0921 11.9815 9.28831Z" stroke="url(#paint8_linear_13_128)" stroke-width="0.5"/>
</g>
<defs>
<linearGradient id="paint0_linear_13_128" x1="14.7898" y1="0" x2="22.333" y2="35.19" gradientUnits="userSpaceOnUse">
<stop stop-color="#020006"/>
<stop offset="1" stop-color="#020006" stop-opacity="0.1"/>
</linearGradient>
<linearGradient id="paint1_linear_13_128" x1="15.8564" y1="0" x2="23.3997" y2="35.19" gradientUnits="userSpaceOnUse">
<stop stop-color="#020006"/>
<stop offset="1" stop-color="#020006" stop-opacity="0.1"/>
</linearGradient>
<linearGradient id="paint2_linear_13_128" x1="16.9231" y1="0" x2="24.4664" y2="35.19" gradientUnits="userSpaceOnUse">
<stop stop-color="#020006"/>
<stop offset="1" stop-color="#020006" stop-opacity="0.1"/>
</linearGradient>
<linearGradient id="paint3_linear_13_128" x1="1.46667" y1="8.92378" x2="35.7137" y2="19.9861" gradientUnits="userSpaceOnUse">
<stop stop-color="#020006"/>
<stop offset="1" stop-color="#020006" stop-opacity="0.1"/>
</linearGradient>
<linearGradient id="paint4_linear_13_128" x1="2.00001" y1="8.00001" x2="36.2471" y2="19.0624" gradientUnits="userSpaceOnUse">
<stop stop-color="#020006"/>
<stop offset="1" stop-color="#020006" stop-opacity="0.1"/>
</linearGradient>
<linearGradient id="paint5_linear_13_128" x1="2.53333" y1="7.07625" x2="36.7804" y2="18.1386" gradientUnits="userSpaceOnUse">
<stop stop-color="#020006"/>
<stop offset="1" stop-color="#020006" stop-opacity="0.1"/>
</linearGradient>
<linearGradient id="paint6_linear_13_128" x1="30.2462" y1="8.92378" x2="-4.00085" y2="19.9861" gradientUnits="userSpaceOnUse">
<stop stop-color="#020006"/>
<stop offset="1" stop-color="#020006" stop-opacity="0.1"/>
</linearGradient>
<linearGradient id="paint7_linear_13_128" x1="29.7129" y1="8.00001" x2="-4.53417" y2="19.0624" gradientUnits="userSpaceOnUse">
<stop stop-color="#020006"/>
<stop offset="1" stop-color="#020006" stop-opacity="0.1"/>
</linearGradient>
<linearGradient id="paint8_linear_13_128" x1="29.1796" y1="7.07625" x2="-5.06751" y2="18.1386" gradientUnits="userSpaceOnUse">
<stop stop-color="#020006"/>
<stop offset="1" stop-color="#020006" stop-opacity="0.1"/>
</linearGradient>
<clipPath id="clip0_13_128">
<rect width="32" height="32" fill="white"/>
</clipPath>
</defs>
</svg>
