<svg width="325" height="50" viewBox="0 0 325 50" fill="none" xmlns="http://www.w3.org/2000/svg">
<mask id="mask0_13_13" style="mask-type:luminance" maskUnits="userSpaceOnUse" x="0" y="0" width="51" height="50">
<path d="M0 0H50.0682V50H0V0Z" fill="white"/>
</mask>
<g mask="url(#mask0_13_13)">
<path d="M29.2347 33.6021L26.8593 35.657C26.8308 35.6814 26.8308 35.7261 26.8593 35.7506L28.9903 37.5857C29.0106 37.606 29.0473 37.606 29.0677 37.5857L30.4204 36.4342C30.453 36.4057 30.5019 36.4179 30.5182 36.4545L31.4309 38.5622C32.7022 41.5123 33.9205 44.1124 35.1469 46.4724C35.1592 46.4968 35.1551 46.5253 35.1347 46.5456C35.1143 46.5701 35.0736 46.5701 35.0491 46.5456C33.1504 44.6129 30.4327 42.2081 28.1672 40.2061L27.0956 39.2662L24.9076 37.3497L21.053 33.9724C21.0326 33.9561 21.0286 33.9276 21.0367 33.9032L23.673 28.1863C23.6852 28.1619 23.6811 28.1374 23.6607 28.1171L22.0676 26.5342C22.0472 26.5139 22.0228 26.5098 21.9983 26.518L16.0943 29.0448C16.0698 29.057 16.0413 29.0489 16.025 29.0286L12.4435 24.9555C12.4231 24.9311 12.4272 24.8985 12.4435 24.8741L15.8905 20.9963C15.9068 20.976 15.9354 20.9678 15.9598 20.98L21.4523 23.4784C21.4768 23.4906 21.5012 23.4866 21.5216 23.4662L23.1147 21.8834C23.1351 21.863 23.1392 21.8386 23.131 21.8142L20.8085 16.4634C20.8004 16.439 20.8045 16.4106 20.8248 16.3943L23.2166 14.3231C23.2451 14.2987 23.2451 14.254 23.2166 14.2296L21.0856 12.3944C21.0652 12.3741 21.0286 12.3741 21.0082 12.3944L19.6391 13.5622C19.6066 13.5867 19.5617 13.5785 19.5454 13.5378L18.6327 11.4342C17.3574 8.48412 16.1391 5.88402 14.9127 3.51993C14.9004 3.49958 14.9045 3.4711 14.9249 3.45075C14.9493 3.42634 14.986 3.42634 15.0104 3.45075C16.9092 5.38353 19.6269 7.78832 21.8924 9.79027L22.964 10.7261L26.0647 13.4442L29.0066 16.024C29.0269 16.0403 29.0351 16.0688 29.0229 16.0932L26.3866 21.8061C26.3744 21.8305 26.3785 21.859 26.3988 21.8752L27.9961 23.4621C28.0124 23.4784 28.0368 23.4866 28.0613 23.4744L33.9653 20.9516C33.9898 20.9394 34.0183 20.9475 34.0387 20.9638L37.6161 25.0409C37.6365 25.0653 37.6365 25.0979 37.6161 25.1223L34.1731 29.0001C34.1527 29.0204 34.1242 29.0245 34.0998 29.0163L28.6073 26.5139C28.5869 26.5058 28.5584 26.5098 28.5421 26.5261L26.9448 28.113C26.9245 28.1293 26.9204 28.1578 26.9326 28.1781L29.251 33.5329C29.2592 33.5574 29.2551 33.5858 29.2347 33.6021ZM22.2224 39.6772C19.7695 41.8215 17.064 44.2589 15.0919 46.1184C15.0756 46.1347 15.0512 46.1347 15.0349 46.1184C15.0227 46.1062 15.0186 46.0858 15.0267 46.0696C16.3795 43.7787 17.6956 41.1298 19.0646 38.1798L19.6799 36.8492C19.6962 36.8126 19.7451 36.8044 19.7736 36.8288L22.5891 39.2703C22.6177 39.2947 22.6177 39.3354 22.5891 39.3598L22.2224 39.6772ZM11.5511 30.9898C8.58078 32.2553 5.96491 33.4638 3.58537 34.6845C3.56092 34.6967 3.5324 34.6926 3.5161 34.6723C3.49165 34.6479 3.49165 34.6112 3.5161 34.5868C5.45967 32.6988 7.87996 29.997 9.89279 27.7468L10.4306 27.1405C10.4592 27.1161 10.4999 27.1161 10.5243 27.1405L13.1728 30.2086C13.2013 30.2411 13.1891 30.2859 13.1524 30.3022L11.5511 30.9898ZM27.8372 10.3152C30.2941 8.17487 32.9956 5.73754 34.9677 3.878C34.984 3.86172 35.0084 3.86172 35.0247 3.878C35.041 3.8902 35.041 3.91055 35.0328 3.92683C33.6801 6.21768 32.3681 8.86254 30.995 11.8126L30.3838 13.1431C30.3634 13.1798 30.3186 13.192 30.286 13.1635L27.4705 10.7261C27.4419 10.7017 27.4419 10.657 27.4705 10.6326L27.8372 10.3152ZM38.5084 19.0066C41.4788 17.7411 44.0947 16.5326 46.4742 15.3119C46.4987 15.2997 46.5272 15.3038 46.5476 15.3241C46.5679 15.3485 46.5679 15.3852 46.5476 15.4096C44.5999 17.2976 42.1796 19.9953 40.1668 22.2455L39.629 22.8518C39.6045 22.8803 39.5597 22.8803 39.5352 22.8518L36.8868 19.7878C36.8582 19.7553 36.8705 19.7064 36.9112 19.6902L38.5084 19.0066ZM37.2127 33.5899L46.8287 37.8217C47.281 38.0211 47.8066 37.9234 48.1529 37.5775L49.579 36.1575C50.0191 35.7221 50.0476 35.0222 49.6442 34.5502L43.2146 27.112C43.1942 27.0836 43.1494 27.0836 43.1249 27.112L41.324 29.171C41.3077 29.1913 41.3077 29.2279 41.328 29.2523C43.1697 31.3113 45.1092 33.4231 46.6576 35.0425C46.6739 35.0588 46.6698 35.0832 46.6576 35.0995C46.6454 35.1117 46.6209 35.1158 46.6087 35.1036C44.3025 33.7608 41.6377 32.4547 38.6674 31.0956L37.0661 30.3673C37.0294 30.351 37.0172 30.3022 37.0457 30.2696L39.6249 27.3318L41.5318 25.163L49.6116 15.963C50.0232 15.491 49.9987 14.787 49.5546 14.3476L48.1244 12.9275C47.7822 12.5857 47.2647 12.484 46.8165 12.6752L37.0701 16.8012C34.385 17.9812 32.0992 19.0635 30.1189 20.1785C30.0986 20.1947 30.066 20.1866 30.0456 20.1703L30.0374 20.1622C30.0171 20.1418 30.013 20.1093 30.0293 20.0889C31.1987 18.0788 32.311 15.8328 33.5049 13.2611L37.7669 3.7071C37.9665 3.25951 37.8687 2.73461 37.5183 2.38874L36.0922 0.972725C35.6522 0.533272 34.9473 0.508858 34.4746 0.91169L25.2783 8.75267C25.2539 8.77302 25.2213 8.77302 25.1969 8.75267L15.5646 0.407133C15.096 -0.00383706 14.383 0.0205757 13.9429 0.46003L12.5127 1.88011C12.1705 2.22191 12.0686 2.73868 12.2601 3.1822L16.408 12.8664C17.5978 15.5357 18.6857 17.8062 19.8103 19.7716C19.8266 19.7919 19.8225 19.8244 19.8021 19.8407L19.794 19.8529C19.7736 19.8692 19.7451 19.8733 19.7206 19.8611C17.6997 18.6973 15.4342 17.5906 12.8469 16.4065L3.23088 12.1747C2.78268 11.9753 2.25706 12.073 1.90665 12.4189L0.480551 13.8349C0.0404978 14.2743 0.0119748 14.9742 0.419432 15.4421L6.84909 22.8843C6.87354 22.9128 6.91429 22.9128 6.93873 22.8843L8.73969 20.8295C8.76006 20.8051 8.76006 20.7725 8.73969 20.7481C6.89391 18.6851 4.95035 16.5733 3.40201 14.9538C3.38979 14.9376 3.38979 14.9132 3.40609 14.8969C3.41831 14.8847 3.43868 14.8806 3.45498 14.8887C5.75711 16.2356 8.42187 17.5377 11.3922 18.9008L12.9935 19.6291C13.0302 19.6454 13.0424 19.6942 13.0139 19.7227L10.4347 22.6646L8.52781 24.8334L8.21 25.1996L7.70475 25.7733L0.452029 34.0334C0.040497 34.5014 0.0649452 35.2094 0.504998 35.6488L1.93517 37.0689C2.27743 37.4107 2.79898 37.5084 3.2431 37.3212L12.9935 33.1952C15.6746 32.0152 17.9645 30.9328 19.9407 29.8139C19.9651 29.8017 19.9936 29.8057 20.014 29.8261L20.0222 29.8342C20.0425 29.8546 20.0466 29.883 20.0303 29.9075C18.8609 31.9175 17.7486 34.1636 16.5547 36.7353L12.2927 46.2893C12.0931 46.7369 12.1908 47.2577 12.5413 47.6036L13.9674 49.0237C14.4074 49.4591 15.1123 49.4875 15.585 49.0847L24.7812 41.2397C24.8057 41.2193 24.8383 41.2234 24.8627 41.2397L34.495 49.5893C34.9677 49.9962 35.6766 49.9717 36.1167 49.5323L37.5469 48.1122C37.8932 47.7704 37.991 47.2577 37.8035 46.8142L33.6516 37.1259C32.4618 34.4607 31.3739 32.1902 30.2493 30.2248C30.233 30.2004 30.2371 30.1719 30.2575 30.1516L30.2656 30.1435C30.286 30.1231 30.3186 30.119 30.343 30.1353C32.364 31.295 34.6254 32.4018 37.2127 33.5899Z" fill="#020006"/>
</g>
<path d="M59.5508 32.9162C59.4611 32.9162 59.396 32.8836 59.3552 32.8185C59.3104 32.7453 59.3104 32.6476 59.3552 32.5256L65.2878 16.2332C65.3407 16.1152 65.3937 16.0339 65.4508 15.9891C65.5159 15.9362 65.6178 15.9077 65.7604 15.9077H67.5369C67.8303 15.9077 68.0096 16.0216 68.0748 16.2495L73.9421 32.5256L73.9747 32.6395C73.9747 32.8267 73.8851 32.9162 73.714 32.9162H72.0841C71.8967 32.9162 71.7786 32.8429 71.7256 32.6883L70.1447 28.245C70.1121 28.1798 70.0795 28.1392 70.0469 28.1147C70.0143 28.0822 69.9531 28.0659 69.8676 28.0659H63.1853C63.0427 28.0659 62.949 28.127 62.9082 28.245L61.2784 32.7046C61.2336 32.847 61.1195 32.9162 60.9361 32.9162H59.5508ZM69.2645 26.3081C69.4357 26.3081 69.4968 26.2104 69.4438 26.0151L66.6894 18.4793C66.6446 18.341 66.5916 18.2677 66.5264 18.2677C66.4694 18.2677 66.4205 18.341 66.3798 18.4793L63.5765 26.064L63.5276 26.1942C63.5276 26.2715 63.5846 26.3081 63.7068 26.3081H69.2645Z" fill="#020006"/>
<path d="M86.6293 20.7739C86.7353 20.7739 86.8086 20.8065 86.8412 20.8716C86.8819 20.9367 86.8901 21.0099 86.8575 21.0832L82.2125 32.5741C82.1228 32.8019 81.9436 32.9159 81.6746 32.9159H80.8434C80.5582 32.9159 80.3708 32.8101 80.273 32.5903L75.6443 21.1157C75.6198 21.0832 75.6117 21.0465 75.6117 21.0018C75.6117 20.8512 75.7013 20.7739 75.8888 20.7739H77.323C77.486 20.7739 77.6042 20.8553 77.6816 21.0181L81.2835 30.035C81.3242 30.1896 81.3813 30.2629 81.4465 30.2629C81.5117 30.2629 81.5809 30.1774 81.6583 30.0024L85.2277 21.0181C85.2806 20.8553 85.3947 20.7739 85.5699 20.7739H86.6293Z" fill="#020006"/>
<path d="M96.3602 31.4513C95.1867 32.5825 93.8217 33.144 92.2693 33.144C91.0836 33.144 90.1505 32.847 89.466 32.2489C88.7815 31.6426 88.4392 30.8328 88.4392 29.8237C88.4392 28.599 88.9526 27.6387 89.9875 26.9429C91.0184 26.2389 92.5178 25.8198 94.4859 25.6896L96.2624 25.5594C96.5231 25.5269 96.6535 25.4129 96.6535 25.2176V24.5991C96.6535 23.7772 96.3968 23.1261 95.8875 22.646C95.3741 22.1577 94.6855 21.9136 93.8176 21.9136C92.469 21.9136 91.3647 22.528 90.5091 23.7528C90.4643 23.8301 90.4154 23.8789 90.3624 23.8993C90.3176 23.9237 90.2565 23.9155 90.1831 23.883L88.9445 23.4761C88.867 23.4435 88.8304 23.3906 88.8304 23.3133C88.8304 23.2726 88.8507 23.1994 88.8956 23.1017C89.3601 22.3001 90.0201 21.6776 90.8676 21.23C91.7152 20.7743 92.7175 20.5464 93.8828 20.5464C95.3823 20.5464 96.5272 20.8963 97.3218 21.5881C98.1122 22.2839 98.5115 23.2401 98.5115 24.4526V32.5744C98.5115 32.7168 98.4871 32.8104 98.4463 32.8511C98.4015 32.8958 98.32 32.9162 98.2019 32.9162H97.0447C96.8573 32.9162 96.7554 32.7941 96.735 32.5418L96.6861 31.5002C96.6617 31.3944 96.625 31.3374 96.572 31.3374C96.5068 31.3374 96.4335 31.3781 96.3602 31.4513ZM96.6535 27.0894C96.6535 26.8534 96.5394 26.7313 96.3113 26.7313L94.8281 26.8615C93.402 26.9591 92.306 27.2358 91.5359 27.6916C90.7617 28.1473 90.3787 28.7821 90.3787 29.5959C90.3787 30.2469 90.6069 30.7677 91.0632 31.1584C91.5277 31.5409 92.1552 31.728 92.9375 31.728C93.4143 31.728 93.8828 31.6466 94.3392 31.4839C94.7955 31.313 95.203 31.077 95.5615 30.784C95.9079 30.5155 96.1727 30.2225 96.3602 29.9051C96.5557 29.5918 96.6535 29.2866 96.6535 28.9937V27.0894Z" fill="#020006"/>
<path d="M105.994 16.1681C105.994 15.9972 106.084 15.9077 106.271 15.9077H118.625C118.796 15.9077 118.886 15.9972 118.886 16.1681V17.3563C118.886 17.4458 118.862 17.5028 118.821 17.5353C118.776 17.5679 118.711 17.5841 118.625 17.5841H113.964C113.866 17.5841 113.793 17.6004 113.752 17.633C113.719 17.6655 113.703 17.7266 113.703 17.812V32.6232C113.703 32.8185 113.609 32.9162 113.426 32.9162H111.78C111.593 32.9162 111.503 32.8185 111.503 32.6232V17.8446C111.503 17.7388 111.487 17.6655 111.454 17.633C111.421 17.6004 111.36 17.5841 111.275 17.5841H106.271C106.182 17.5841 106.112 17.5679 106.059 17.5353C106.014 17.5028 105.994 17.4458 105.994 17.3563V16.1681Z" fill="#020006"/>
<path d="M122.879 27.5939C122.879 28.3345 123.058 29.0181 123.417 29.6447C123.775 30.2632 124.256 30.7596 124.867 31.1258C125.487 31.4961 126.163 31.6792 126.905 31.6792C128.425 31.6792 129.614 31.0444 130.474 29.7749C130.539 29.7098 130.592 29.6772 130.637 29.6772C130.678 29.6691 130.735 29.6772 130.8 29.7098L131.762 30.1818C131.88 30.2591 131.896 30.369 131.811 30.5073C131.212 31.431 130.499 32.1024 129.675 32.5256C128.848 32.9365 127.858 33.144 126.709 33.144C125.601 33.144 124.599 32.8836 123.71 32.3628C122.818 31.842 122.121 31.1177 121.624 30.1818C121.135 29.2378 120.891 28.1636 120.891 26.9591C120.891 25.6571 121.139 24.5259 121.64 23.5575C122.15 22.5809 122.846 21.8403 123.727 21.3276C124.607 20.8068 125.593 20.5464 126.693 20.5464C127.789 20.5464 128.755 20.7905 129.594 21.2788C130.429 21.7671 131.077 22.4832 131.533 23.4272C131.99 24.3631 132.218 25.4699 132.218 26.7476V26.8452C132.218 26.9876 132.194 27.0894 132.153 27.1545C132.108 27.2196 132.014 27.2521 131.876 27.2521H123.091C122.948 27.2521 122.879 27.366 122.879 27.5939ZM129.904 25.9989C130.075 25.9989 130.185 25.9826 130.23 25.95C130.27 25.9093 130.295 25.8158 130.295 25.6733C130.295 25.002 130.152 24.3835 129.871 23.8179C129.586 23.2441 129.174 22.7843 128.632 22.4344C128.086 22.0885 127.459 21.9136 126.742 21.9136C125.959 21.9136 125.275 22.1089 124.688 22.4995C124.11 22.8901 123.67 23.3947 123.368 24.0132C123.062 24.6317 122.916 25.2949 122.928 25.9989H129.904Z" fill="#020006"/>
<path d="M139.974 20.5464C141.091 20.5464 142.044 20.8068 142.826 21.3276C143.617 21.8403 144.253 22.5239 144.733 23.3784L144.766 23.5737C144.766 23.6632 144.717 23.7121 144.619 23.7202L143.348 24.0295L143.283 24.0457C143.205 24.0457 143.128 23.9888 143.055 23.8667C142.566 23.2075 142.093 22.7233 141.637 22.4181C141.189 22.117 140.675 21.9624 140.088 21.9624C138.89 21.9624 137.941 22.4019 137.236 23.2808C136.539 24.1597 136.193 25.3478 136.193 26.8452C136.193 28.3548 136.544 29.547 137.252 30.4259C137.97 31.2967 138.931 31.728 140.137 31.728C140.854 31.728 141.482 31.5571 142.028 31.2072C142.57 30.8491 143.063 30.3039 143.511 29.5633C143.552 29.4901 143.597 29.4494 143.641 29.4494C143.694 29.4412 143.747 29.4494 143.804 29.4819L144.799 29.84C144.905 29.897 144.933 29.9987 144.88 30.1493C144.411 31.0282 143.764 31.7524 142.941 32.314C142.113 32.8673 141.123 33.144 139.974 33.144C138.854 33.144 137.86 32.8836 136.992 32.3628C136.12 31.8338 135.443 31.0933 134.954 30.1493C134.465 29.1971 134.221 28.1107 134.221 26.894C134.221 25.6693 134.465 24.5747 134.954 23.6063C135.443 22.6297 136.128 21.877 137.008 21.3439C137.888 20.8149 138.874 20.5464 139.974 20.5464Z" fill="#020006"/>
<path d="M147.684 32.9162C147.488 32.9162 147.39 32.8185 147.39 32.6232V16.217C147.39 16.0135 147.472 15.9077 147.635 15.9077H148.988C149.159 15.9077 149.248 16.0013 149.248 16.1844V22.3042C149.248 22.4792 149.318 22.4995 149.46 22.3693C150.328 21.6979 151.066 21.2259 151.677 20.9533C152.284 20.6847 152.956 20.5464 153.698 20.5464C154.871 20.5464 155.772 20.8638 156.403 21.4904C157.043 22.1089 157.365 22.9552 157.365 24.0295V32.5418C157.365 32.7941 157.251 32.9162 157.023 32.9162H155.735C155.54 32.9162 155.442 32.8185 155.442 32.6232V24.4364C155.442 23.6795 155.246 23.0936 154.855 22.6785C154.464 22.2676 153.865 22.0601 153.062 22.0601C152.41 22.0601 151.815 22.2025 151.286 22.4832C150.764 22.7681 150.104 23.2441 149.314 23.9155V32.5744C149.314 32.8022 149.191 32.9162 148.955 32.9162H147.684Z" fill="#020006"/>
<path d="M161.083 32.9162C160.863 32.9162 160.757 32.8185 160.757 32.6232V21.0672C160.757 20.8719 160.842 20.7743 161.017 20.7743H162.386C162.558 20.7743 162.647 20.8556 162.647 21.0184V22.353C162.647 22.5158 162.716 22.5402 162.859 22.4181C163.707 21.7467 164.432 21.2707 165.043 20.9858C165.65 20.6929 166.331 20.5464 167.08 20.5464C168.242 20.5464 169.142 20.8638 169.786 21.4904C170.438 22.1089 170.764 22.9471 170.764 23.9969V32.5418C170.764 32.7941 170.65 32.9162 170.421 32.9162H169.134C168.938 32.9162 168.841 32.8185 168.841 32.6232V24.4364C168.841 23.6795 168.645 23.0936 168.254 22.6785C167.863 22.2676 167.264 22.0601 166.461 22.0601C165.809 22.0601 165.21 22.2025 164.668 22.4832C164.122 22.7681 163.466 23.2441 162.696 23.9155V32.5744C162.696 32.6965 162.668 32.7819 162.615 32.8348C162.558 32.8918 162.472 32.9162 162.354 32.9162H161.083Z" fill="#020006"/>
<path d="M179.257 33.144C178.104 33.144 177.089 32.8836 176.209 32.3628C175.329 31.8338 174.649 31.0933 174.172 30.1493C173.691 29.1971 173.455 28.1147 173.455 26.9103C173.455 25.6733 173.699 24.5788 174.188 23.6226C174.686 22.6582 175.378 21.9054 176.258 21.3602C177.138 20.819 178.141 20.5464 179.273 20.5464C180.414 20.5464 181.425 20.819 182.305 21.3602C183.185 21.9054 183.861 22.6582 184.342 23.6226C184.819 24.5788 185.059 25.6693 185.059 26.894C185.059 28.0985 184.815 29.1808 184.326 30.133C183.837 31.077 183.152 31.8175 182.272 32.3465C181.392 32.8796 180.386 33.144 179.257 33.144ZM179.306 31.6955C180.5 31.6955 181.429 31.2682 182.093 30.4097C182.753 29.543 183.087 28.3548 183.087 26.8452C183.087 25.3478 182.745 24.1597 182.06 23.2808C181.384 22.4019 180.455 21.9624 179.273 21.9624C178.088 21.9624 177.147 22.4019 176.454 23.2808C175.769 24.1597 175.427 25.3478 175.427 26.8452C175.427 28.3426 175.769 29.5267 176.454 30.3934C177.147 31.2642 178.1 31.6955 179.306 31.6955Z" fill="#020006"/>
<path d="M189.855 32.5256C189.855 32.6802 189.822 32.7819 189.757 32.8348C189.7 32.8918 189.598 32.9162 189.447 32.9162H188.257C188.115 32.9162 188.017 32.8958 187.964 32.8511C187.919 32.8104 187.899 32.7209 187.899 32.5907L187.932 16.2332C187.932 16.0176 188.021 15.9077 188.209 15.9077H189.578C189.761 15.9077 189.855 16.0135 189.855 16.217V32.5256Z" fill="#020006"/>
<path d="M198.484 33.144C197.331 33.144 196.316 32.8836 195.436 32.3628C194.556 31.8338 193.875 31.0933 193.399 30.1493C192.918 29.1971 192.682 28.1147 192.682 26.9103C192.682 25.6733 192.926 24.5788 193.415 23.6226C193.912 22.6582 194.605 21.9054 195.485 21.3602C196.365 20.819 197.367 20.5464 198.5 20.5464C199.641 20.5464 200.651 20.819 201.532 21.3602C202.412 21.9054 203.088 22.6582 203.569 23.6226C204.046 24.5788 204.286 25.6693 204.286 26.894C204.286 28.0985 204.042 29.1808 203.553 30.133C203.064 31.077 202.379 31.8175 201.499 32.3465C200.619 32.8796 199.612 33.144 198.484 33.144ZM198.533 31.6955C199.727 31.6955 200.656 31.2682 201.32 30.4097C201.98 29.543 202.314 28.3548 202.314 26.8452C202.314 25.3478 201.972 24.1597 201.287 23.2808C200.611 22.4019 199.682 21.9624 198.5 21.9624C197.314 21.9624 196.373 22.4019 195.681 23.2808C194.996 24.1597 194.654 25.3478 194.654 26.8452C194.654 28.3426 194.996 29.5267 195.681 30.3934C196.373 31.2642 197.327 31.6955 198.533 31.6955Z" fill="#020006"/>
<path d="M218.128 20.5627C218.421 20.5627 218.568 20.6889 218.568 20.9371V21.7346C218.568 21.8892 218.527 22.0032 218.454 22.0764C218.388 22.1415 218.266 22.1659 218.095 22.1415C217.594 22.1415 217.199 22.2148 216.905 22.3531C216.535 22.5077 216.384 22.6786 216.449 22.8739C216.457 22.939 216.502 23.0611 216.579 23.232C216.665 23.3948 216.73 23.5819 216.775 23.7854C216.816 23.9929 216.84 24.2086 216.84 24.4364C216.84 25.5229 216.416 26.414 215.569 27.1057C214.721 27.7893 213.483 28.1311 211.853 28.1311C210.765 28.1311 209.983 28.2247 209.506 28.4078C209.037 28.595 208.805 28.8269 208.805 29.1077C208.805 29.3355 208.96 29.5105 209.278 29.6285C209.604 29.7506 210.142 29.8319 210.891 29.8726L213.858 30.0354C215.17 30.1127 216.147 30.426 216.791 30.9794C217.431 31.5247 217.753 32.2652 217.753 33.2092C217.753 34.3689 217.239 35.2763 216.221 35.9273C215.21 36.5865 213.764 36.9202 211.885 36.9202C209.938 36.9202 208.455 36.6435 207.436 36.0901C206.426 35.5367 205.92 34.7392 205.92 33.6975C205.92 32.6803 206.637 31.8176 208.072 31.1096C208.243 31.0364 208.243 30.9469 208.072 30.8492C207.363 30.5481 207.012 30.0964 207.012 29.4983C207.012 29.1646 207.167 28.8432 207.485 28.538C207.799 28.2369 208.251 27.9846 208.838 27.7893C208.911 27.769 208.952 27.7323 208.952 27.6754C208.952 27.6021 208.911 27.5452 208.838 27.5126C208.161 27.1545 207.664 26.7314 207.338 26.2431C207.02 25.7467 206.866 25.1444 206.866 24.4364C206.866 23.2442 207.314 22.3043 208.218 21.6207C209.119 20.929 210.394 20.579 212.048 20.579C213.491 20.579 214.64 20.929 215.487 21.6207C215.593 21.698 215.671 21.7346 215.716 21.7346C215.781 21.7346 215.862 21.698 215.96 21.6207C216.253 21.3277 216.596 21.0795 216.987 20.872C217.378 20.6685 217.757 20.5627 218.128 20.5627ZM211.853 26.9104C212.916 26.9104 213.711 26.6988 214.232 26.2756C214.762 25.8443 215.031 25.2258 215.031 24.4202C215.031 23.5982 214.758 22.9553 214.216 22.4996C213.682 22.0357 212.896 21.7997 211.853 21.7997C210.851 21.7997 210.064 22.0357 209.49 22.4996C208.923 22.9675 208.642 23.6064 208.642 24.4202C208.642 25.2136 208.919 25.828 209.473 26.2594C210.036 26.6947 210.83 26.9104 211.853 26.9104ZM209.848 31.4189C209.563 31.4107 209.245 31.4921 208.887 31.663C208.536 31.838 208.239 32.0862 207.99 32.4117C207.75 32.7372 207.632 33.0872 207.632 33.4696C207.632 34.1939 208.006 34.7555 208.756 35.1461C209.506 35.5367 210.618 35.732 212.097 35.732C214.672 35.732 215.96 34.967 215.96 33.4371C215.96 32.9081 215.781 32.489 215.422 32.1838C215.064 31.8827 214.481 31.7078 213.678 31.663L209.848 31.4189Z" fill="#020006"/>
<path d="M222.96 18.1538C222.96 18.3084 222.927 18.4224 222.862 18.4956C222.805 18.5607 222.703 18.5933 222.552 18.5933H221.216C220.988 18.5933 220.874 18.4631 220.874 18.2026V16.2821C220.874 16.0339 220.979 15.9077 221.2 15.9077H222.65C222.736 15.9077 222.805 15.9403 222.862 16.0054C222.927 16.0705 222.96 16.1519 222.96 16.2495V18.1538ZM222.878 32.5256C222.878 32.6802 222.846 32.7819 222.78 32.8348C222.715 32.8918 222.605 32.9162 222.454 32.9162H221.297C221.155 32.9162 221.057 32.8958 221.004 32.8511C220.959 32.8104 220.939 32.7209 220.939 32.5907V21.0835C220.939 20.88 221.028 20.7743 221.216 20.7743H222.617C222.789 20.7743 222.878 20.8719 222.878 21.0672V32.5256Z" fill="#020006"/>
<path d="M227.709 27.5939C227.709 28.3345 227.889 29.0181 228.247 29.6447C228.606 30.2632 229.087 30.7596 229.698 31.1258C230.317 31.4961 230.994 31.6792 231.735 31.6792C233.255 31.6792 234.445 31.0444 235.304 29.7749C235.37 29.7098 235.423 29.6772 235.467 29.6772C235.508 29.6691 235.565 29.6772 235.63 29.7098L236.592 30.1818C236.71 30.2591 236.726 30.369 236.641 30.5073C236.042 31.431 235.329 32.1024 234.506 32.5256C233.679 32.9365 232.689 33.144 231.54 33.144C230.431 33.144 229.429 32.8836 228.541 32.3628C227.648 31.842 226.952 31.1177 226.454 30.1818C225.966 29.2378 225.721 28.1636 225.721 26.9591C225.721 25.6571 225.97 24.5259 226.471 23.5575C226.98 22.5809 227.677 21.8403 228.557 21.3276C229.437 20.8068 230.423 20.5464 231.523 20.5464C232.619 20.5464 233.585 20.7905 234.424 21.2788C235.26 21.7671 235.907 22.4832 236.364 23.4272C236.82 24.3631 237.048 25.4699 237.048 26.7476V26.8452C237.048 26.9876 237.024 27.0894 236.983 27.1545C236.938 27.2196 236.845 27.2521 236.706 27.2521H227.921C227.779 27.2521 227.709 27.366 227.709 27.5939ZM234.734 25.9989C234.905 25.9989 235.015 25.9826 235.06 25.95C235.101 25.9093 235.125 25.8158 235.125 25.6733C235.125 25.002 234.983 24.3835 234.701 23.8179C234.416 23.2441 234.005 22.7843 233.463 22.4344C232.917 22.0885 232.289 21.9136 231.572 21.9136C230.79 21.9136 230.105 22.1089 229.519 22.4995C228.94 22.8901 228.5 23.3947 228.198 24.0132C227.893 24.6317 227.746 25.2949 227.758 25.9989H234.734Z" fill="#020006"/>
<path d="M247.054 23.4435C246.736 22.9797 246.296 22.6053 245.734 22.3205C245.18 22.0397 244.532 21.8973 243.795 21.8973C242.955 21.8973 242.267 22.0763 241.725 22.4344C241.191 22.7925 240.926 23.2604 240.926 23.8341C240.926 24.1922 241.061 24.5137 241.334 24.7944C241.602 25.0793 242.087 25.3275 242.784 25.5431L245.702 26.4058C246.712 26.6784 247.462 27.0853 247.951 27.6265C248.44 28.1717 248.684 28.8146 248.684 29.5633C248.684 30.2713 248.464 30.8939 248.032 31.4351C247.608 31.9803 247.022 32.4035 246.272 32.7046C245.522 32.9976 244.675 33.144 243.729 33.144C242.556 33.144 241.505 32.9121 240.584 32.4442C239.671 31.9803 239.019 31.37 238.628 30.6213C238.583 30.548 238.563 30.487 238.563 30.4422C238.563 30.369 238.6 30.3079 238.677 30.2632L239.573 29.7586C239.724 29.661 239.838 29.6691 239.916 29.7749C240.739 31.0892 242.018 31.7443 243.746 31.7443C244.646 31.7362 245.392 31.549 245.979 31.1909C246.573 30.8328 246.875 30.3608 246.875 29.7749C246.875 29.3517 246.696 28.9937 246.337 28.7007C245.987 28.4077 245.416 28.1473 244.626 27.9194L242.263 27.2521C241.142 26.9591 240.339 26.5604 239.85 26.0477C239.37 25.5269 239.133 24.8921 239.133 24.1434C239.133 23.4395 239.329 22.8169 239.72 22.2716C240.111 21.7183 240.657 21.2951 241.366 21.0021C242.083 20.701 242.902 20.5464 243.827 20.5464C244.838 20.5464 245.738 20.7376 246.533 21.116C247.335 21.4985 247.955 22.0194 248.391 22.6785C248.497 22.8332 248.489 22.9349 248.358 22.9878L247.397 23.5249C247.339 23.5575 247.299 23.5737 247.266 23.5737C247.201 23.5737 247.128 23.533 247.054 23.4435Z" fill="#020006"/>
<path d="M257.215 15.9077C258.735 15.9077 259.937 15.9199 260.817 15.9403C263.914 15.985 266.171 16.7012 267.597 18.0887C269.031 19.4803 269.748 21.5555 269.748 24.3224C269.748 30.0516 266.692 32.9162 260.589 32.9162H257.215C257.007 32.9162 256.905 32.7941 256.905 32.5418V16.217C256.905 16.1112 256.926 16.0339 256.97 15.9891C257.011 15.9362 257.093 15.9077 257.215 15.9077ZM259.285 17.5841C259.163 17.5841 259.106 17.694 259.106 17.9097V31.0119C259.106 31.1095 259.122 31.1828 259.154 31.2235C259.195 31.256 259.273 31.2723 259.383 31.2723H260.246C261.962 31.2723 263.343 31.0526 264.386 30.605C265.437 30.1493 266.212 29.4168 266.701 28.4077C267.198 27.3986 267.45 26.0558 267.45 24.3713C267.45 22.6908 267.21 21.3683 266.733 20.3999C266.265 19.4233 265.543 18.7316 264.565 18.3166C263.596 17.8934 262.308 17.6574 260.703 17.6004C260.397 17.5923 259.925 17.5841 259.285 17.5841Z" fill="#020006"/>
<path d="M273.781 32.9162C273.573 32.9162 273.471 32.8022 273.471 32.5744V16.2332C273.471 16.1152 273.487 16.0339 273.52 15.9891C273.56 15.9362 273.634 15.9077 273.732 15.9077H275.948C276.066 15.9077 276.152 15.9321 276.209 15.9728C276.262 16.0054 276.307 16.0705 276.339 16.1681L281.424 29.3029C281.465 29.4331 281.522 29.4982 281.587 29.4982C281.661 29.4982 281.734 29.425 281.799 29.2703L286.884 16.217C286.925 16.0135 287.039 15.9077 287.227 15.9077H289.557C289.72 15.9077 289.802 16.0135 289.802 16.217V32.5744C289.802 32.8022 289.688 32.9162 289.459 32.9162H287.944C287.716 32.9162 287.601 32.8185 287.601 32.6232V19.5047C287.601 19.4315 287.589 19.3989 287.569 19.4071C287.544 19.4193 287.52 19.4518 287.487 19.5047L282.435 32.6232C282.345 32.8185 282.199 32.9162 281.995 32.9162H280.903C280.675 32.9162 280.52 32.8267 280.447 32.6395L275.459 19.6512C275.447 19.578 275.427 19.5373 275.394 19.5373C275.361 19.5373 275.345 19.578 275.345 19.6512V32.6232C275.345 32.7331 275.321 32.8104 275.28 32.8511C275.235 32.8958 275.15 32.9162 275.019 32.9162H273.781Z" fill="#020006"/>
<path d="M300.695 15.6794C301.706 15.6794 302.668 15.8992 303.58 16.3305C304.493 16.7537 305.247 17.3233 305.846 18.0395C306.441 18.7556 306.799 19.5369 306.921 20.3832L306.938 20.546C306.938 20.6029 306.913 20.6436 306.873 20.6762C306.84 20.7087 306.799 20.725 306.758 20.725L305.031 20.8552H304.998C304.941 20.8552 304.9 20.8389 304.868 20.8064C304.843 20.7657 304.823 20.7047 304.803 20.6274C304.574 19.6427 304.102 18.8492 303.385 18.2511C302.668 17.657 301.792 17.3559 300.761 17.3559C299.163 17.3559 297.933 17.95 297.077 19.13C296.23 20.314 295.806 22.0841 295.806 24.436C295.806 26.7472 296.23 28.4887 297.077 29.6606C297.933 30.8243 299.2 31.4021 300.875 31.4021C301.959 31.4021 302.867 31.1417 303.597 30.6209C304.322 30.0919 304.909 29.2618 305.357 28.1306C305.389 28.0248 305.479 27.9923 305.634 28.033L306.987 28.3585C307.093 28.391 307.133 28.5009 307.101 28.684C306.873 29.4449 306.473 30.1651 305.911 30.8487C305.345 31.5242 304.623 32.0776 303.743 32.5089C302.871 32.932 301.889 33.1436 300.793 33.1436C299.269 33.1436 297.966 32.7978 296.882 32.102C295.806 31.398 294.975 30.3889 294.388 29.0746C293.809 27.7522 293.524 26.1897 293.524 24.3871C293.524 22.5886 293.805 21.0343 294.372 19.7322C294.946 18.422 295.773 17.4169 296.849 16.7211C297.933 16.0294 299.216 15.6794 300.695 15.6794Z" fill="#020006"/>
<path d="M316.917 15.6794C317.928 15.6794 318.889 15.8992 319.802 16.3305C320.715 16.7537 321.468 17.3233 322.067 18.0395C322.662 18.7556 323.021 19.5369 323.143 20.3832L323.159 20.546C323.159 20.6029 323.135 20.6436 323.094 20.6762C323.062 20.7087 323.021 20.725 322.98 20.725L321.252 20.8552H321.22C321.163 20.8552 321.122 20.8389 321.089 20.8064C321.065 20.7657 321.045 20.7047 321.024 20.6274C320.796 19.6427 320.323 18.8492 319.606 18.2511C318.889 17.657 318.013 17.3559 316.982 17.3559C315.385 17.3559 314.155 17.95 313.299 19.13C312.451 20.314 312.028 22.0841 312.028 24.436C312.028 26.7472 312.451 28.4887 313.299 29.6606C314.155 30.8243 315.422 31.4021 317.096 31.4021C318.18 31.4021 319.089 31.1417 319.818 30.6209C320.543 30.0919 321.13 29.2618 321.578 28.1306C321.611 28.0248 321.701 27.9923 321.855 28.033L323.208 28.3585C323.314 28.391 323.355 28.5009 323.322 28.684C323.094 29.4449 322.695 30.1651 322.133 30.8487C321.566 31.5242 320.845 32.0776 319.965 32.5089C319.093 32.932 318.111 33.1436 317.015 33.1436C315.491 33.1436 314.187 32.7978 313.103 32.102C312.028 31.398 311.196 30.3889 310.61 29.0746C310.031 27.7522 309.746 26.1897 309.746 24.3871C309.746 22.5886 310.027 21.0343 310.593 19.7322C311.168 18.422 311.995 17.4169 313.071 16.7211C314.155 16.0294 315.438 15.6794 316.917 15.6794Z" fill="#020006"/>
</svg>
