<svg width="390" height="232" viewBox="0 0 390 232" fill="none" xmlns="http://www.w3.org/2000/svg">
<g clip-path="url(#clip0_13_119)">
<path d="M192.076 200.142H197.924C200.184 197.985 202.358 195.74 204.439 193.41H185.56C187.642 195.74 189.816 197.985 192.076 200.142Z" fill="#020006"/>
<path d="M179.983 186.679H210.017C211.693 184.495 213.294 182.249 214.815 179.947H175.185C176.706 182.249 178.306 184.495 179.983 186.679Z" fill="#020006"/>
<path d="M171.058 173.216H218.942C220.19 171.016 221.368 168.771 222.474 166.485H167.526C168.632 168.771 169.81 171.016 171.058 173.216Z" fill="#020006"/>
<path d="M164.531 159.753H225.469C226.369 157.543 227.203 155.298 227.969 153.022H162.031C162.797 155.298 163.631 157.543 164.531 159.753Z" fill="#020006"/>
<path d="M159.994 146.291H230.006C230.604 144.072 231.138 141.828 231.606 139.559H158.394C158.861 141.828 159.396 144.072 159.994 146.291Z" fill="#020006"/>
<path d="M157.212 132.828H232.788C233.111 130.604 233.371 128.359 233.567 126.097H156.433C156.628 128.359 156.888 130.604 157.212 132.828Z" fill="#020006"/>
<path d="M156.048 119.365H233.952C233.984 118.247 234 117.125 234 115.999C234 114.873 233.984 113.752 233.952 112.634H156.048C156.016 113.752 156 114.873 156 115.999C156 117.125 156.016 118.247 156.048 119.365Z" fill="#020006"/>
<path d="M156.433 105.902H233.567C233.372 103.64 233.112 101.395 232.788 99.1711H157.211C156.888 101.395 156.628 103.64 156.433 105.902Z" fill="#020006"/>
<path d="M158.393 92.4398H231.607C231.139 90.1712 230.605 87.9267 230.006 85.7084H159.993C159.395 87.9267 158.861 90.1712 158.393 92.4398Z" fill="#020006"/>
<path d="M162.031 78.977H227.969C227.204 76.7011 226.369 74.4565 225.469 72.2457H164.531C163.63 74.4565 162.796 76.7011 162.031 78.977Z" fill="#020006"/>
<path d="M167.525 65.5143H222.475C221.369 63.2281 220.19 60.9833 218.942 58.7829H171.058C169.809 60.9833 168.631 63.2281 167.525 65.5143Z" fill="#020006"/>
<path d="M175.184 52.0516H214.816C213.295 49.7496 211.694 47.5045 210.018 45.3202H179.982C178.305 47.5045 176.705 49.7496 175.184 52.0516Z" fill="#020006"/>
<path d="M185.559 38.5889H204.441C202.359 36.2594 200.186 34.0138 197.925 31.8575H192.075C189.814 34.0138 187.64 36.2594 185.559 38.5889Z" fill="#020006"/>
<path d="M389.417 116C389.417 180.019 337.298 231.921 273 231.921C208.703 231.921 156.583 180.019 156.583 116C156.583 51.9809 208.703 0.0789541 273 0.0789541C337.298 0.0789541 389.417 51.9809 389.417 116Z" stroke="url(#paint0_linear_13_119)" stroke-width="1.16667"/>
<path d="M233.417 116C233.417 180.019 181.297 231.921 117 231.921C52.7025 231.921 0.583333 180.019 0.583333 116C0.583333 51.9809 52.7025 0.0789541 117 0.0789541C181.297 0.0789541 233.417 51.9809 233.417 116Z" stroke="url(#paint1_linear_13_119)" stroke-width="1.16667"/>
</g>
<defs>
<linearGradient id="paint0_linear_13_119" x1="211.25" y1="22.1492" x2="324.243" y2="239.371" gradientUnits="userSpaceOnUse">
<stop stop-color="#020006"/>
<stop offset="1" stop-color="white"/>
</linearGradient>
<linearGradient id="paint1_linear_13_119" x1="55.25" y1="9.20432" x2="187.597" y2="275.025" gradientUnits="userSpaceOnUse">
<stop stop-color="#020006"/>
<stop offset="1" stop-color="#272727"/>
<stop offset="1" stop-color="white"/>
</linearGradient>
<clipPath id="clip0_13_119">
<rect width="390" height="232" fill="white"/>
</clipPath>
</defs>
</svg>
